<svg width="23" height="23" viewBox="0 0 23 23" fill="none" xmlns="http://www.w3.org/2000/svg">
<path d="M13.4167 11.4987L10.0625 13.4154V9.58203L13.4167 11.4987Z" fill="#E6E6E6" stroke="#E6E6E6" stroke-width="1.4375" stroke-linecap="round" stroke-linejoin="round"/>
<path d="M1.91602 12.178V10.821C1.91602 8.0466 1.91602 6.65894 2.78331 5.76673C3.65156 4.87356 5.01814 4.83523 7.75035 4.7576C9.0441 4.72119 10.3666 4.69531 11.4993 4.69531C12.6321 4.69531 13.9536 4.72119 15.2483 4.7576C17.9806 4.83523 19.3471 4.87356 20.2144 5.76673C21.0817 6.6599 21.0827 8.04756 21.0827 10.821V12.177C21.0827 14.9524 21.0827 16.3391 20.2154 17.2322C19.3471 18.1244 17.9815 18.1637 15.2483 18.2404C13.9546 18.2778 12.6321 18.3036 11.4993 18.3036C10.3666 18.3036 9.04506 18.2778 7.75035 18.2404C5.01814 18.1637 3.65156 18.1254 2.78331 17.2322C1.91506 16.3391 1.91602 14.9514 1.91602 12.178Z" stroke="#E6E6E6" stroke-width="1.4375"/>
</svg>
